<svg xmlns="http://www.w3.org/2000/svg" viewBox="0 0 64 64" width="64" height="64" role="img" aria-label="Policy to Knowledge logo">
  <defs>
    <linearGradient id="p2k" x1="0" y1="0" x2="1" y2="1">
      <stop offset="0" stop-color="#4f46e5"/>
      <stop offset="1" stop-color="#06b6d4"/>
    </linearGradient>
  </defs>
  <rect x="4" y="4" width="56" height="56" rx="14" fill="url(#p2k)"/>
  <!-- document -->
  <rect x="16" y="14" width="18" height="24" rx="2" fill="#fff" opacity="0.95"/>
  <rect x="19" y="19" width="12" height="2" rx="1" fill="#4f46e5"/>
  <rect x="19" y="24" width="12" height="2" rx="1" fill="#4f46e5"/>
  <rect x="19" y="29" width="8" height="2" rx="1" fill="#4f46e5"/>
  <!-- knowledge graph nodes -->
  <circle cx="44" cy="24" r="5" fill="#fff"/>
  <circle cx="46" cy="42" r="5" fill="#fff"/>
  <circle cx="30" cy="46" r="5" fill="#fff"/>
  <path d="M44 24 L46 42 M46 42 L30 46 M30 46 L34 30" stroke="#fff" stroke-width="2" fill="none" opacity="0.9"/>
  <circle cx="44" cy="24" r="2.2" fill="#06b6d4"/>
  <circle cx="46" cy="42" r="2.2" fill="#06b6d4"/>
  <circle cx="30" cy="46" r="2.2" fill="#06b6d4"/>
</svg>
